<svg width="400" height="240" viewBox="0 0 400 240" fill="none" xmlns="http://www.w3.org/2000/svg">
  <!-- Laptop Base -->
  <rect x="20" y="180" width="360" height="40" rx="8" fill="#E5E7EB"/>
  <rect x="30" y="185" width="340" height="30" rx="6" fill="#D1D5DB"/>
  
  <!-- Laptop Screen Frame -->
  <rect x="40" y="20" width="320" height="200" rx="12" fill="#1F2937"/>
  <rect x="50" y="30" width="300" height="160" rx="4" fill="#FFFFFF"/>
  
  <!-- Browser Header -->
  <rect x="50" y="30" width="300" height="20" rx="4" fill="#F1F5F9"/>
  <circle cx="60" cy="40" r="3" fill="#EF4444"/>
  <circle cx="72" cy="40" r="3" fill="#F59E0B"/>
  <circle cx="84" cy="40" r="3" fill="#10B981"/>
  <rect x="100" y="36" width="150" height="8" rx="4" fill="#E5E7EB"/>
  <text x="105" y="42" font-family="system-ui" font-size="5" fill="#6B7280">localhost:5000</text>
  
  <!-- Navigation Bar -->
  <rect x="50" y="50" width="300" height="20" rx="0" fill="#FFFFFF" stroke="#E5E7EB" stroke-width="0.5"/>
  <text x="60" y="62" font-family="system-ui" font-size="8" font-weight="bold" fill="#3B82F6">WebRevamp Studio</text>
  <text x="200" y="62" font-family="system-ui" font-size="6" fill="#374151">Home</text>
  <text x="230" y="62" font-family="system-ui" font-size="6" fill="#374151">Services</text>
  <text x="270" y="62" font-family="system-ui" font-size="6" fill="#374151">Work</text>
  <text x="300" y="62" font-family="system-ui" font-size="6" fill="#374151">About</text>
  <text x="325" y="62" font-family="system-ui" font-size="6" fill="#374151">Contact</text>
  
  <!-- Main Website Content -->
  <rect x="50" y="70" width="300" height="120" rx="0" fill="#FFFFFF"/>
  
  <!-- Two Column Layout -->
  <!-- Left Column - Text Content -->
  <rect x="60" y="80" width="140" height="100" rx="4" fill="#FFFFFF"/>
  <text x="70" y="95" font-family="system-ui" font-size="12" font-weight="bold" fill="#1F2937">We build modern,</text>
  <text x="70" y="108" font-family="system-ui" font-size="12" font-weight="bold" fill="#3B82F6">responsive websites</text>
  
  <text x="70" y="125" font-family="system-ui" font-size="7" fill="#6B7280">From outdated to outstanding — your</text>
  <text x="70" y="133" font-family="system-ui" font-size="7" fill="#6B7280">website will shine on any device.</text>
  
  <!-- CTA Buttons -->
  <rect x="70" y="145" width="50" height="15" rx="8" fill="#3B82F6"/>
  <text x="85" y="155" font-family="system-ui" font-size="6" font-weight="bold" fill="#FFFFFF">Get a Free Audit</text>
  
  <rect x="130" y="145" width="40" height="15" rx="8" fill="none" stroke="#3B82F6" stroke-width="1"/>
  <text x="140" y="155" font-family="system-ui" font-size="6" font-weight="bold" fill="#3B82F6">View Work</text>
  
  <!-- Right Column - Device Mockups -->
  <rect x="210" y="80" width="130" height="100" rx="4" fill="#F8FAFC"/>
  
  <!-- Laptop Device Mockup -->
  <rect x="225" y="95" width="70" height="42" rx="4" fill="#374151"/>
  <rect x="228" y="98" width="64" height="36" rx="2" fill="#FFFFFF"/>
  
  <!-- Website content in laptop -->
  <rect x="230" y="100" width="60" height="4" rx="1" fill="#F3F4F6"/>
  <rect x="230" y="106" width="45" height="3" rx="1" fill="#3B82F6"/>
  <text x="232" y="111" font-family="system-ui" font-size="4" fill="#1F2937">WebRevamp Studio</text>
  <rect x="230" y="114" width="35" height="2" rx="1" fill="#E5E7EB"/>
  <rect x="230" y="118" width="40" height="2" rx="1" fill="#E5E7EB"/>
  <rect x="230" y="122" width="20" height="8" rx="2" fill="#F3F4F6"/>
  <rect x="255" y="122" width="20" height="8" rx="2" fill="#F3F4F6"/>
  
  <!-- Mobile Device Mockup (overlapping) -->
  <rect x="290" y="110" width="25" height="50" rx="6" fill="#374151"/>
  <rect x="293" y="115" width="19" height="40" rx="3" fill="#FFFFFF"/>
  
  <!-- Website content in mobile -->
  <rect x="295" y="118" width="15" height="2" rx="1" fill="#3B82F6"/>
  <rect x="295" y="122" width="12" height="1" rx="0.5" fill="#E5E7EB"/>
  <rect x="295" y="125" width="10" height="1" rx="0.5" fill="#E5E7EB"/>
  <rect x="295" y="129" width="15" height="6" rx="2" fill="#F3F4F6"/>
  <rect x="295" y="137" width="15" height="6" rx="2" fill="#F3F4F6"/>
  <rect x="295" y="145" width="10" height="4" rx="2" fill="#3B82F6"/>
</svg>